<svg width="180" height="80" viewBox="0 0 180 80" fill="none" preserveAspectRatio="none" xmlns="http://www.w3.org/2000/svg">
<path d="M179 40C179 45.1975 176.634 50.2242 172.203 54.8804C167.767 59.5418 161.3 63.7851 153.233 67.3705C137.102 74.54 114.746 79 90 79C65.2536 79 42.898 74.54 26.7665 67.3705C18.6995 63.7851 12.2331 59.5418 7.79704 54.8804C3.36586 50.2242 1 45.1975 1 40C1 34.8025 3.36586 29.7758 7.79704 25.1196C12.2331 20.4582 18.6995 16.2149 26.7665 12.6295C42.898 5.45998 65.2536 1 90 1C114.746 1 137.102 5.45998 153.233 12.6295C161.3 16.2149 167.767 20.4582 172.203 25.1196C176.634 29.7758 179 34.8025 179 40Z" stroke="#F0E7F6" stroke-width="2"/>
</svg>
