<svg width="239" height="83" viewBox="0 0 239 83" fill="none" preserveAspectRatio="none" xmlns="http://www.w3.org/2000/svg">
<path fill-rule="evenodd" clip-rule="evenodd" d="M10.2644 82.0781C7.24949 82.0781 5.74205 82.0781 4.55296 81.5856C2.9675 80.9289 1.70785 79.6692 1.05113 78.0838C0.558594 76.8947 0.558594 75.3872 0.558594 72.3723L0.558594 54.7839C0.558594 51.769 0.558594 50.2616 1.05113 49.0725C1.70785 47.487 2.9675 46.2274 4.55296 45.5707C5.74205 45.0781 7.2495 45.0781 10.2644 45.0781H22.9805C24.4744 45.0781 25.2214 45.0781 25.8427 44.9553C28.4157 44.4468 30.4272 42.4353 30.9358 39.8622C31.0586 39.2409 31.0586 38.4939 31.0586 37V9.70579C31.0586 6.6909 31.0586 5.18346 31.5511 3.99436C32.2079 2.4089 33.4675 1.14926 35.053 0.492539C36.2421 0 37.7495 0 40.7644 0L229.235 0C232.25 0 233.757 0 234.946 0.492539C236.532 1.14926 237.791 2.4089 238.448 3.99436C238.941 5.18346 238.941 6.6909 238.941 9.70579V27.2942C238.941 30.3091 238.941 31.8165 238.448 33.0056C237.791 34.5911 236.532 35.8507 234.946 36.5075C233.757 37 232.25 37 229.235 37H182.646C179.632 37 178.124 37 176.935 37.4925C175.35 38.1493 174.09 39.4089 173.433 40.9944C172.941 42.1835 172.941 43.6909 172.941 46.7058V53.3281C172.941 54.5167 172.941 55.1111 172.863 55.6085C172.428 58.3863 170.249 60.5653 167.471 61.0002C166.974 61.0781 166.379 61.0781 165.191 61.0781C164.002 61.0781 163.408 61.0781 162.91 61.156C160.133 61.5909 157.953 63.77 157.519 66.5478C157.441 67.0452 157.441 67.6395 157.441 68.8281V72.3723C157.441 75.3872 157.441 76.8947 156.948 78.0838C156.291 79.6692 155.032 80.9289 153.446 81.5856C152.257 82.0781 150.75 82.0781 147.735 82.0781H10.2644Z" fill="black"/>
</svg>
