<svg width="492" height="6" viewBox="0 0 492 6" preserveAspectRatio="none" fill="none" xmlns="http://www.w3.org/2000/svg">
<path d="M1 1C23.8367 1 46.4433 1.36725 69.1849 2.74074C77.8982 3.26698 86.4351 3.33333 95.1998 3.33333C105.467 3.33333 115.385 2.66667 125.67 2.66667C139.848 2.66667 153.639 2.13337 167.725 1.40741C180.985 0.724022 194.488 1.57286 207.739 1.66667C220.481 1.75687 232.87 3.24244 245.511 4C256.269 4.64468 266.686 5 277.534 5C288.585 5 299.633 4.74731 310.649 4.66667C320.751 4.59272 330.36 2.33333 340.459 2.33333C363.905 2.33333 387.352 2.33333 410.799 2.33333C429.104 2.33333 447.339 2 465.618 2C471.667 2 477.189 2.12566 483.124 2.92593C485.886 3.29841 487.978 4.33333 491 4.33333" stroke="white" stroke-width="0.5" stroke-linecap="round"/>
</svg>
